<svg width="1000" height="1000" viewBox="0 0 1000 1000" fill="none" xmlns="http://www.w3.org/2000/svg">
<g clip-path="url(#clip0_581_583)">
<path fill-rule="evenodd" clip-rule="evenodd" d="M1605 -1C1605 -9.28427 1598.28 -16 1590 -16H-102C-110.284 -16 -117 -9.28426 -117 -0.99999V1048C-117 1056.28 -110.284 1063 -102 1063H1590C1598.28 1063 1605 1056.28 1605 1048V-1ZM583.685 415.93C583.685 421.468 580.633 426.555 575.747 429.163L416.518 514.145C412.104 516.501 406.806 516.501 402.392 514.145L243.163 429.163C238.277 426.555 235.226 421.468 235.226 415.93V247.949C235.226 242.411 238.277 237.324 243.163 234.716L402.392 149.734C406.806 147.379 412.104 147.379 416.518 149.734L575.747 234.716C580.633 237.324 583.685 242.411 583.685 247.949V415.93ZM945.816 415.93C945.816 421.468 942.765 426.555 937.879 429.163L778.651 514.145C774.237 516.501 768.939 516.501 764.525 514.145L605.295 429.163C600.409 426.555 597.358 421.468 597.358 415.93V247.949C597.358 242.411 600.409 237.324 605.295 234.716L764.525 149.734C768.939 147.379 774.237 147.379 778.651 149.734L937.879 234.716C942.765 237.324 945.816 242.411 945.816 247.949V415.93ZM763.412 706.052C763.412 711.59 760.36 716.677 755.474 719.285L596.242 804.266C591.828 806.622 586.531 806.621 582.117 804.266L422.887 719.285C418.001 716.677 414.95 711.59 414.95 706.052V538.07C414.95 532.532 418.001 527.445 422.887 524.837L582.117 439.855C586.531 437.499 591.828 437.499 596.242 439.855L755.474 524.837C760.36 527.445 763.412 532.532 763.412 538.07V706.052ZM401.281 706.052C401.281 711.59 398.229 716.677 393.343 719.285L234.114 804.266C229.7 806.621 224.402 806.621 219.988 804.266L60.7589 719.285C55.8731 716.677 52.8215 711.59 52.8215 706.052V538.07C52.8215 532.532 55.8731 527.445 60.7589 524.837L219.988 439.855C224.402 437.499 229.7 437.499 234.114 439.855L393.343 524.837C398.229 527.445 401.281 532.532 401.281 538.07V706.052Z" fill="#F9F9F9"/>
</g>
<defs>
<clipPath id="clip0_581_583">
<rect width="1000" height="1000" fill="white"/>
</clipPath>
</defs>
</svg>
